<?xml version="1.0" standalone="no"?><!DOCTYPE svg PUBLIC "-//W3C//DTD SVG 1.1//EN" "http://www.w3.org/Graphics/SVG/1.1/DTD/svg11.dtd"><svg t="1563939797920" class="icon" viewBox="0 0 1027 1024" version="1.1" xmlns="http://www.w3.org/2000/svg" p-id="2243" xmlns:xlink="http://www.w3.org/1999/xlink" width="200.5859375" height="200"><defs><style type="text/css"></style></defs><path d="M468.5532603 409.19351375c196.82690719 0 356.32144125-70.96216219 356.32144126-158.59411406 0-87.63195187-159.49549594-158.59411406-356.32144126-158.59411407s-356.32144125 70.96216219-356.32144124 158.59411407C112.23181906 338.23135156 271.72731406 409.19351375 468.5532603 409.19351375z" p-id="2244"></path><path d="M468.5532603 573.96660687c5.23339313 0 10.32264281-0.24985031 15.50030064-0.34786781 33.674955-72.69381375 107.08276312-123.23171156 192.46222219-123.23171156 41.78450437 0 80.6323125 12.24552563 113.47411405 33.09933937 22.13381344-20.65681688 34.88576531-43.69105125 34.88576532-68.11387406 0-32.1825825 0-65.74798781 0-121.26270281 0 87.63195187-159.49549594 158.59411406-356.32144126 158.59411406s-356.32144125-70.96216219-356.32144124-158.59411406c0 36.59339344 0 61.02006 0 121.26270281C112.23181906 503.00444469 271.72731406 573.96660687 468.5532603 573.96660687z" p-id="2245"></path><path d="M468.5532603 738.7397c3.37105125 0 6.6373575-0.18066094 9.98438439-0.22294312-9.05897906-23.60120156-14.23279313-49.13008969-14.23279314-75.91975969 0-15.5022225 1.7624025-30.57489469 4.92012001-45.13345313-0.22966969 0-0.44684719 0.01441406-0.67171126 0.01441406-196.82690719 0-356.32144125-70.96216219-356.32144124-158.59411406 0 36.59339344 0 61.02006 0 121.26270281C112.23181906 667.77753781 271.72731406 738.7397 468.5532603 738.7397z" p-id="2246"></path><path d="M617.57332062 866.18138094c-48.15279281-13.88492531-89.35399406-44.14366406-116.81729719-84.65489531-10.62438469 0.42474469-21.33237281 0.72456469-32.20276313 0.72456468-196.82690719 0-356.32144125-70.96216219-356.32144124-158.59411406 0 36.59339344 0 61.02006 0 121.26270281 0 87.63195187 159.49549594 158.59411406 356.32144124 158.59411407 55.00732687 0 106.82522531-5.75039062 153.29249251-15.67711688-2.90882906-5.95987969-4.545345-12.48288281-4.545345-19.33741781C617.30040688 867.70354344 617.53295937 866.96552562 617.57332062 866.18138094z" p-id="2247"></path><path d="M925.63914593 867.30282313l-110.48840812-110.48840813c-1.03687687-1.03687687-2.15063062-1.95939937-3.32011969-2.79063094 17.75855813-27.10006031 28.10426437-59.474835 28.10426438-94.22510531 0-95.05345313-77.33141156-172.38486469-172.3848647-172.38486469-95.05345313 0-172.38486469 77.33141156-172.38486467 172.38486469s77.33141156 172.38486469 172.38486467 172.38486469c31.09957969 0 60.29933906-8.28060094 85.51687689-22.7478675 1.12048031 1.93345312 2.48600625 3.73237219 4.10906906 5.355435l110.48840813 110.48840812c12.645285 12.645285 35.87459438 9.91807781 51.88420406-6.09153187C935.55722374 903.1774175 938.28443094 879.94810812 925.63914593 867.30282313zM543.2132 659.79867875c0-68.55975937 55.7770575-124.33681687 124.33681687-124.33681687s124.33681687 55.7770575 124.33681688 124.33681687-55.7770575 124.33681687-124.33681687 124.33681688S543.2132 728.35843812 543.2132 659.79867875z" p-id="2248"></path></svg>