<?xml version="1.0" standalone="no"?><!DOCTYPE svg PUBLIC "-//W3C//DTD SVG 1.1//EN" "http://www.w3.org/Graphics/SVG/1.1/DTD/svg11.dtd"><svg t="1571970247093" class="icon" viewBox="0 0 1024 1024" version="1.1" xmlns="http://www.w3.org/2000/svg" p-id="1075" width="128" height="128" xmlns:xlink="http://www.w3.org/1999/xlink"><defs><style type="text/css"></style></defs><path d="M162.304 369.664c-75.264 0-136.192-60.928-136.192-136.192S87.04 97.28 162.304 97.28c75.264 0 136.192 60.928 136.192 136.192s-60.928 136.192-136.192 136.192z m0-221.184c-47.104 0-84.992 37.888-84.992 84.992s37.888 84.992 84.992 84.992c47.104 0 84.992-37.888 84.992-84.992s-37.888-84.992-84.992-84.992z m332.288 497.152c-75.264 0-136.192-60.928-136.192-136.192 0-75.264 60.928-136.192 136.192-136.192s136.192 60.928 136.192 136.192c0 75.264-60.928 136.192-136.192 136.192z m0-221.184c-47.104 0-84.992 37.888-84.992 84.992s37.888 84.992 84.992 84.992c47.104 0 84.992-37.888 84.992-84.992s-37.888-84.992-84.992-84.992zM826.368 921.6c-75.264 0-136.192-60.928-136.192-136.192 0-75.264 60.928-136.192 136.192-136.192 75.264 0 136.192 60.928 136.192 136.192 0 75.264-60.928 136.192-136.192 136.192z m0-221.184c-47.104 0-84.992 37.888-84.992 84.992s37.888 84.992 84.992 84.992 84.992-37.888 84.992-84.992-37.888-84.992-84.992-84.992zM936.96 259.072H383.488c-14.336 0-25.6-11.264-25.6-25.6s11.264-25.6 25.6-25.6H936.96c14.336 0 25.6 11.264 25.6 25.6s-11.264 25.6-25.6 25.6zM274.432 535.04H51.712c-14.336 0-25.6-11.264-25.6-25.6s11.264-25.6 25.6-25.6h222.72c14.336 0 25.6 11.264 25.6 25.6s-11.264 25.6-25.6 25.6z m655.36 0h-222.72c-14.336 0-25.6-11.264-25.6-25.6s11.264-25.6 25.6-25.6h222.72c14.336 0 25.6 11.264 25.6 25.6s-11.264 25.6-25.6 25.6zM619.008 811.008H66.048c-14.336 0-25.6-11.264-25.6-25.6s11.264-25.6 25.6-25.6h552.96c14.336 0 25.6 11.264 25.6 25.6s-11.264 25.6-25.6 25.6z" p-id="1076"></path></svg>