<?xml version="1.0" standalone="no"?><!DOCTYPE svg PUBLIC "-//W3C//DTD SVG 1.1//EN" "http://www.w3.org/Graphics/SVG/1.1/DTD/svg11.dtd"><svg t="1569478096326" class="icon" viewBox="0 0 1024 1024" version="1.1" xmlns="http://www.w3.org/2000/svg" p-id="1901" xmlns:xlink="http://www.w3.org/1999/xlink" width="128" height="128"><defs><style type="text/css"></style></defs><path d="M512.1 127.8C300 127.8 128 299.7 128 511.8c0 96.3 35.4 184.3 94 251.7l-84.8 84.8c-12.3 12.3-12.3 32.3 0 44.6 12.3 12.3 32.3 12.3 44.6 0l85.3-85.3c66.5 55.2 151.9 88.3 245 88.3s178.5-33.2 245-88.3l85.3 85.3c12.3 12.3 32.3 12.3 44.6 0 12.3-12.3 12.3-32.3 0-44.6l-84.8-84.8c58.5-67.4 94-155.4 94-251.7 0-212.1-172-384-384.1-384z m150.5 515.5c-12.3 12.3-32.3 12.3-44.6 0L489.6 514.9c-2.5-2.5-4.4-5.3-5.9-8.2-2.5-4.5-3.9-9.7-3.9-15.1V310c0-17.3 14.2-31.5 31.5-31.5s31.5 14.2 31.5 31.5v169l119.7 119.7c12.3 12.3 12.3 32.4 0.1 44.6zM152.7 239.8l87.4-87.4c12.3-12.3 12.3-32.3 0-44.6-12.3-12.3-32.3-12.3-44.6 0l-87.4 87.4c-12.3 12.3-12.3 32.3 0 44.6 12.3 12.3 32.4 12.3 44.6 0zM918.2 195.3l-87.4-87.4c-12.3-12.3-32.3-12.3-44.6 0-12.3 12.3-12.3 32.3 0 44.6l87.4 87.4c12.3 12.3 32.3 12.3 44.6 0 12.2-12.3 12.2-32.4 0-44.6z" p-id="1902"></path></svg>