<?xml version="1.0" standalone="no"?><!DOCTYPE svg PUBLIC "-//W3C//DTD SVG 1.1//EN" "http://www.w3.org/Graphics/SVG/1.1/DTD/svg11.dtd"><svg t="1563946413643" class="icon" viewBox="0 0 1024 1024" version="1.1" xmlns="http://www.w3.org/2000/svg" p-id="1079" xmlns:xlink="http://www.w3.org/1999/xlink" width="200" height="200"><defs><style type="text/css"></style></defs><path d="M958.72 420.90666667L580.90666667 68.58666667c-19.09333333-21.76-46.72-34.24-75.94666667-34.34666667-28.8 0-56.32 12.37333333-74.66666667 32.96L66.34666667 420.58666667c-18.13333333 18.56-23.36 45.54666667-13.33333334 69.54666666 10.02666667 23.89333333 33.38666667 38.93333333 59.30666667 38.93333334H145.06666667v359.25333333c0 55.78666667 44.58666667 101.01333333 100.26666666 101.01333333h156.26666667c20.26666667 0 38.29333333-16.32 38.29333333-36.58666666v-238.93333334c0-10.13333333 6.72-19.2 16.85333334-19.2h110.29333333c10.13333333 0 17.92 9.06666667 17.92 19.2v238.93333334c0 20.26666667 16.96 36.58666667 37.22666667 36.58666666h156.26666666c55.78666667 0 101.33333333-45.22666667 101.33333334-101.01333333V529.17333333h32.64c25.92 0 49.17333333-14.93333333 59.2-38.82666666 10.24-23.89333333 5.12-50.88-12.90666667-69.44z" p-id="1080"></path></svg>