<?xml version="1.0" standalone="no"?><!DOCTYPE svg PUBLIC "-//W3C//DTD SVG 1.1//EN" "http://www.w3.org/Graphics/SVG/1.1/DTD/svg11.dtd"><svg t="1563939367445" class="icon" viewBox="0 0 1024 1024" version="1.1" xmlns="http://www.w3.org/2000/svg" p-id="1124" xmlns:xlink="http://www.w3.org/1999/xlink" width="200" height="200"><defs><style type="text/css"></style></defs><path d="M674.84474675 116.50936738h-465.29320315A92.70072245 92.70072245 0 0 0 116.49290358 209.56800816v465.29320315a93.05864079 93.05864079 0 0 0 93.05864002 93.05864002h280.60759342v-23.98049535a208.66610584 208.66610584 0 0 1 209.381941-207.23443477v-46.17140206H769.33505862V209.56800816A92.70072245 92.70072245 0 0 0 674.84474675 116.50936738z m32.21260656 279.17592157a32.21260655 32.21260655 0 1 1-64.42521311 0v-13.95879549l-176.45349929 176.45349929a28.63342769 28.63342769 0 0 1-21.47507077 8.590028h-3.57917808a27.20175662 27.20175662 0 0 1-22.90674262-8.94794634L302.61018437 442.21460935 233.53203972 510.21900051A33.28636004 33.28636004 0 0 1 188.07647282 464.7634344l90.55321621-92.34280487a31.8546882 31.8546882 0 0 1 24.3384137-8.59002877 30.7809347 30.7809347 0 0 1 23.62257777 8.59002876l115.60746506 115.96538265 153.54675668-153.54675746H581.78610597a32.21260655 32.21260655 0 0 1 0-64.42521231h93.05864078a32.21260655 32.21260655 0 0 1 32.21260656 32.21260654zM744.63872734 535.27325013v162.85262138s162.85262138 1.78958943 162.85262061 0a162.85262138 162.85262138 0 0 0-162.85262061-162.85262138z" p-id="1125"></path><path d="M698.10940695 581.80257052a162.85262138 162.85262138 0 1 0 162.85262138 162.8526206h-162.85262139z" p-id="1126"></path></svg>