<?xml version="1.0" standalone="no"?><!DOCTYPE svg PUBLIC "-//W3C//DTD SVG 1.1//EN" "http://www.w3.org/Graphics/SVG/1.1/DTD/svg11.dtd"><svg t="1569478092028" class="icon" viewBox="0 0 1024 1024" version="1.1" xmlns="http://www.w3.org/2000/svg" p-id="1790" xmlns:xlink="http://www.w3.org/1999/xlink" width="128" height="128"><defs><style type="text/css"></style></defs><path d="M899.57 318.185H124.43A32.4 32.4 0 0 0 92 350.495v549.195C92 917.435 106.565 932 124.43 932h775.14A32.4 32.4 0 0 0 932 899.69V350.495a32.475 32.475 0 0 0-32.43-32.31zM253.55 156.635h516.93c8.805 0 16.095-7.29 16.095-16.35V108.35c0-9.165-7.17-16.335-16.095-16.335H253.535c-8.805 0-16.095 7.29-16.095 16.335v31.95a16.02 16.02 0 0 0 16.095 16.35z m-80.7 113.025a16.2 16.2 0 0 1-16.215-16.335v-31.95c0-9.06 7.275-16.35 16.2-16.35h678.345c8.94 0 16.215 7.17 16.215 16.35v31.95c0 9.045-7.275 16.335-16.2 16.335H172.82z m548.52 356.67c5.025 4.845 9 10.635 11.445 17.13 2.805 6.6 4.2 13.575 4.2 21.15a52.05 52.05 0 0 1-16.005 37.785 55.32 55.32 0 0 1-17.625 11.34 55.89 55.89 0 0 1-21.255 4.125c-7.47 0-14.595-1.41-21.255-4.125a57.075 57.075 0 0 1-17.4-11.34 53.34 53.34 0 0 1-11.55-17.01 52.47 52.47 0 0 1-1.53-37.2c1.875-5.205 4.2-9.93 7.005-14.175l-37.485-65.205-65.28 142.56c3.39 4.725 5.955 9.81 7.95 15.24 1.98 5.31 2.91 11.1 2.91 17.13 0 7.32-1.395 14.295-4.2 20.79a50.85 50.85 0 0 1-11.55 17.01 53.025 53.025 0 0 1-17.4 11.325 55.89 55.89 0 0 1-21.27 4.14c-7.47 0-14.595-1.41-21.255-4.14a57.075 57.075 0 0 1-17.4-11.325 53.34 53.34 0 0 1-11.55-17.01 52.47 52.47 0 0 1-4.2-20.79c0-3.3 0.225-6.375 0.57-9.45a27.3 27.3 0 0 1 2.58-8.265l-75.33-89.055c-1.29 0-2.565 0.12-3.855 0.225-1.275 0.12-2.685 0.24-4.2 0.24-7.47 0-14.595-1.41-21.255-4.125a57.075 57.075 0 0 1-17.4-11.34 52.32 52.32 0 0 1-11.55-16.77 50.52 50.52 0 0 1-4.215-20.55c0-7.335 1.395-14.295 4.2-20.79a50.85 50.85 0 0 1 11.565-17.01 53.025 53.025 0 0 1 17.4-11.34 55.89 55.89 0 0 1 21.255-4.14c7.71 0 14.94 1.425 21.48 4.14 6.54 2.835 12.39 6.6 17.4 11.34 5.025 4.845 9 10.5 11.805 17.01a52.47 52.47 0 0 1 1.86 36.015c-1.5 4.965-3.615 9.57-6.18 13.83l66.09 81.495c3.39-1.545 6.9-2.73 10.635-3.78 3.735-1.065 7.695-1.545 11.79-1.545 1.515 0 3.615 0.24 6.18 0.72l66.45-145.17a56.4 56.4 0 0 1-13.305-17.7 51.855 51.855 0 0 1-4.8-22.215c0-7.32 1.41-14.295 4.2-20.79a53.55 53.55 0 0 1 28.725-28.59A56.205 56.205 0 0 1 600.26 452c7.83 0 14.955 1.41 21.495 4.14 6.54 2.7 12.375 6.6 17.4 11.445a52.47 52.47 0 0 1 16.005 37.92c0 8.025-1.65 15.36-5.025 22.2a58.5 58.5 0 0 1-13.545 17.715l36.66 65.325h9.225c7.485 0 14.595 1.41 21.255 4.125a52.5 52.5 0 0 1 17.64 11.46z" p-id="1791"></path></svg>