<?xml version="1.0" standalone="no"?><!DOCTYPE svg PUBLIC "-//W3C//DTD SVG 1.1//EN" "http://www.w3.org/Graphics/SVG/1.1/DTD/svg11.dtd"><svg t="1569478059526" class="icon" viewBox="0 0 1024 1024" version="1.1" xmlns="http://www.w3.org/2000/svg" p-id="1538" width="128" height="128" xmlns:xlink="http://www.w3.org/1999/xlink"><defs><style type="text/css"></style></defs><path d="M828 98.2H198c-55 0-100 45-100 100v630c0 55 45 100 100 100h630c55 0 100-45 100-100v-630c0-55-45-100-100-100zM256 276.4c0-23.6 19.3-43 43-43h426.1c23.6 0 43 19.3 43 43 0 23.6-19.4 43-43 43H299c-23.7 0-43-19.4-43-43z m0 171.8c0-23.6 19.3-43 43-43h426.1c23.6 0 43 19.3 43 43 0 23.6-19.4 43-43 43H299c-23.7 0-43-19.3-43-43z m640 288.2c0 17.6-14.4 32.1-32.1 32.1H716.1L611 873.6c-2.6 3.6-5.9 6.8-10 9.1-9.4 5.4-20.4 5.5-29.5 1.3-3.5-1.5-6.8-3.7-9.6-6.6-3-3-5.3-6.5-6.8-10.2L431 652.2 324.6 758.4c-6.4 6.4-14.9 9.5-23.4 9.3h-141c-17.6 0-32.1-14.4-32.1-32.1 0-17.6 14.4-32.1 32.1-32.1h128.5l125.1-125.1c2.2-2.5 4.9-4.7 7.9-6.5 15.3-8.8 35-3.5 43.8 11.7L591.6 802l89-89c3.5-3.5 7.7-6 12.1-7.6 3.8-1.6 8-2.5 12.4-2.5H864c17.6 0 32.1 14.4 32.1 32.1v1.4z" p-id="1539"></path></svg>