<?xml version="1.0" standalone="no"?><!DOCTYPE svg PUBLIC "-//W3C//DTD SVG 1.1//EN" "http://www.w3.org/Graphics/SVG/1.1/DTD/svg11.dtd"><svg t="1563939791156" class="icon" viewBox="0 0 1024 1024" version="1.1" xmlns="http://www.w3.org/2000/svg" p-id="2131" xmlns:xlink="http://www.w3.org/1999/xlink" width="200" height="200"><defs><style type="text/css"></style></defs><path d="M898.363581 890.040953l-93.301989-93.304036c21.142529-31.930223 33.599236-70.124104 33.599236-111.28659601 0-111.580285-90.453105-202.030319-202.029296-202.030319-111.580285 0-202.030319 90.449012-202.030319 202.030319 0 111.575168 90.449012 202.030319 202.030319 202.030319 41.162492 0 79.356372-12.459776 111.286596-33.60128199l93.304036 93.30301299c11.609409 11.610432 30.608112 11.610432 42.219567 0l14.921851-14.922874C909.974014 920.64906499 909.974014 901.651385 898.363581 890.040953L898.363581 890.040953zM745.731322 737.408694c-11.954263 25.040303-32.102139 45.189202-57.142441 57.14244099-15.801894 7.544837-33.280987 12.120039-51.957349 12.120039-66.948785 0-121.219829-54.272068-121.219829-121.21880599 0-66.947761 54.271044-121.218806 121.219829-121.21880601 66.945715 0 121.218806 54.271044 121.218806 121.21880601C757.851361 704.13077599 753.275135 721.60782299 745.731322 737.408694L745.731322 737.408694z" p-id="2132"></path><path d="M373.050368 723.28399799l-98.812493 0c-16.932648 0-30.78719-13.854543-30.78719-30.78616699 0-16.933671 13.854543-30.78719 30.78719-30.78719001l97.150644 0c2.556219-28.955472 9.768481-56.57246 20.887726-82.09678599L274.239921 579.61385499c-16.933671 0-30.78719-13.855566-30.78719-30.78719 0-16.932648 13.854543-30.786167 30.78719-30.78616699l155.581428 0c30.133298-36.96796 70.040193-65.646116 115.78505-82.09883301L274.239921 435.94166499c-16.933671 0-30.78719-13.854543-30.78719-30.786167 0-16.932648 13.854543-30.78719 30.78719-30.78719l473.92994 0c16.933671 0 30.78719 13.854543 30.78719 30.78719 0 16.931624-13.854543 30.786167-30.78719 30.786167l-23.207561 0c82.996273 29.851888 146.774855 99.949386 167.811983 186.758498L892.774283 180.31670599c0-51.311643-41.98216-93.292779-93.292779-93.29277899L222.928279 87.023927c-51.311643 0-93.292779 41.98216-93.292779 93.29277899l0 666.114007c0 51.311643 41.98216 93.292779 93.292779 93.29277901l338.158696 0C462.659245 911.06580199 387.91389 826.85077199 373.050368 723.28399799L373.050368 723.28399799zM274.239921 230.695094l473.92994 0c16.933671 0 30.78719 13.854543 30.78719 30.786167 0 16.932648-13.854543 30.78719-30.78719 30.78719L274.239921 292.268451c-16.933671 0-30.78719-13.854543-30.78719-30.78719001C243.452731 244.54963599 257.30625 230.695094 274.239921 230.695094L274.239921 230.695094z" p-id="2133"></path></svg>