<?xml version="1.0" standalone="no"?><!DOCTYPE svg PUBLIC "-//W3C//DTD SVG 1.1//EN" "http://www.w3.org/Graphics/SVG/1.1/DTD/svg11.dtd"><svg t="1563939758501" class="icon" viewBox="0 0 1024 1024" version="1.1" xmlns="http://www.w3.org/2000/svg" p-id="1903" xmlns:xlink="http://www.w3.org/1999/xlink" width="200" height="200"><defs><style type="text/css"></style></defs><path d="M272.10253906 716.47753906v-14.63378906c0-7.51464844 7.51464844-14.63378906 15.02929688-14.63378906h213.57421875l7.51464843-7.51464844 115.48828126-110.34667969H287.13183594c-7.51464844 0-15.02929688-7.51464844-15.02929688-14.63378906v-14.63378906c0-7.51464844 7.51464844-14.63378906 15.02929688-14.63378906h384.03808594l148.31542968-141.98730469V143.38671875c0-14.63378906-12.65625-26.89453125-27.68554687-26.89453125H362.67382812l-195.77636718 2.37304688c-20.17089844-2.37304688-32.82714844 14.63378906-32.82714844 29.26757812v722.59277344c0 14.63378906 15.02929688 31.640625 30.05859375 29.26757812H395.10546875l47.85644531-139.61425781v-2.37304687c0-4.74609375 5.14160156-24.52148438 5.14160157-29.26757813H284.75878906c-5.14160156 2.37304688-12.65625-5.14160156-12.65625-12.26074219z m0-357.5390625c0-7.51464844 7.51464844-14.63378906 15.02929688-14.63378906H683.82617188c7.51464844 0 15.02929688 7.51464844 15.02929687 14.63378906v14.63378906c0 7.51464844-7.51464844 14.63378906-15.02929688 14.63378907H287.13183594c-7.51464844 0-15.02929688-7.51464844-15.02929688-14.63378907v-14.63378906zM919.94433594 532.56640625l-70.40039063-66.04980469c-9.88769531-9.88769531-27.68554688-7.51464844-40.34179687 2.37304688l-37.57324219 36.78222656 105.60058594 100.45898438 37.57324219-36.78222657c12.65625-9.88769531 12.65625-26.89453125 5.14160156-36.78222656z m-369.00878906 183.91113281L503.07910156 758.00585938c-2.37304688 0-5.14160156 4.74609375-5.14160156 9.88769531v2.37304687l-42.71484375 124.98046875c-2.37304688 4.74609375 0 7.51464844 2.37304688 9.88769532 2.37304688 2.37304688 7.51464844 2.37304688 9.88769531 2.37304687l130.51757812-39.15527344h2.37304688c5.14160156 0 7.51464844-4.74609375 9.88769531-4.74609375l251.14746094-237.70019531-105.60058594-100.45898438-204.87304688 191.03027344z" p-id="1904"></path></svg>