<?xml version="1.0" standalone="no"?><!DOCTYPE svg PUBLIC "-//W3C//DTD SVG 1.1//EN" "http://www.w3.org/Graphics/SVG/1.1/DTD/svg11.dtd"><svg t="1569478086830" class="icon" viewBox="0 0 1024 1024" version="1.1" xmlns="http://www.w3.org/2000/svg" p-id="1679" xmlns:xlink="http://www.w3.org/1999/xlink" width="128" height="128"><defs><style type="text/css"></style></defs><path d="M921.23185202 95.34710883a29.3193229 29.3193229 0 0 1 12.76128781 30.05757943l-120.54671246 723.22754453a29.68845117 29.68845117 0 0 1-29.68845117 24.94251726 32.06141812 32.06141812 0 0 1-11.28477557-2.37296694l-213.25061509-87.06151483-113.95513806 138.84492344a27.63187976 27.63187976 0 0 1-23.04414405 10.86291457 25.83897198 25.83897198 0 0 1-10.38832168-1.89837323 29.3193229 29.3193229 0 0 1-14.3432655-11.07384549 29.37205564 29.37205564 0 0 1-5.43145771-17.19082534v-164.26203443l406.77923969-498.63942114-503.27988876 435.57123696L109.57174587 599.94531328c-11.60117111-4.3240729-17.9290827-12.97221872-18.82553657-25.83897197a27.9482753 27.9482753 0 0 1 15.08152203-27.79007795L889.22316662 94.34518948A29.00292737 29.00292737 0 0 1 904.35742138 90.12658203a29.00292737 29.00292737 0 0 1 16.9798961 5.22052679z" p-id="1680"></path></svg>