<?xml version="1.0" standalone="no"?><!DOCTYPE svg PUBLIC "-//W3C//DTD SVG 1.1//EN" "http://www.w3.org/Graphics/SVG/1.1/DTD/svg11.dtd"><svg t="1571992592851" class="icon" viewBox="0 0 1024 1024" version="1.1" xmlns="http://www.w3.org/2000/svg" p-id="1958" width="128" height="128" xmlns:xlink="http://www.w3.org/1999/xlink"><defs><style type="text/css"></style></defs><path d="M833.28 170.666667H725.333333v-8.96a47.36 47.36 0 1 0-94.293333 0V170.666667H393.813333v-8.96a47.36 47.36 0 1 0-95.146666 0V170.666667H190.72a49.066667 49.066667 0 0 0-48.64 47.786666v642.133334a49.066667 49.066667 0 0 0 49.066667 49.066666h640a49.066667 49.066667 0 0 0 49.066666-49.066666v-640A49.066667 49.066667 0 0 0 833.28 170.666667z m-115.626667 376.32l-213.333333 213.333333a32 32 0 0 1-42.666667 0l-133.546666-136.533333a31.573333 31.573333 0 0 1 42.666666-42.666667l111.36 111.36 189.44-189.44a31.573333 31.573333 0 0 1 42.666667 0 32.426667 32.426667 0 0 1 3.413333 42.666667zM818.346667 256v72.96H205.226667V237.653333a5.12 5.12 0 0 1 5.546666-5.12H298.666667v7.68a47.36 47.36 0 1 0 94.293333 0v-7.68h236.8v7.68a47.36 47.36 0 1 0 94.293333 0v-7.68h88.32a5.12 5.12 0 0 1 5.546667 5.12c0.426667 4.693333 0.426667 10.666667 0.426667 18.346667z" p-id="1959"></path></svg>