<?xml version="1.0" standalone="no"?><!DOCTYPE svg PUBLIC "-//W3C//DTD SVG 1.1//EN" "http://www.w3.org/Graphics/SVG/1.1/DTD/svg11.dtd"><svg class="icon" width="128px" height="128.00px" viewBox="0 0 1024 1024" version="1.1" xmlns="http://www.w3.org/2000/svg"><path d="M827.2 104H188.8c-28.8 0-51.2 22.4-51.2 51.2v721.6c0 28.8 22.4 51.2 51.2 51.2H624c-60.8-40-102.4-108.8-102.4-185.6 0-120 97.6-217.6 217.6-217.6 51.2 0 99.2 17.6 136 49.6V156.8c1.6-28.8-20.8-52.8-48-52.8zM416 579.2c-6.4 6.4-14.4 11.2-24 11.2h-140.8c-17.6 0-35.2-14.4-35.2-35.2v-1.6-1.6c0-17.6 14.4-35.2 35.2-35.2h142.4c19.2 1.6 33.6 17.6 33.6 36.8 0 11.2-4.8 19.2-11.2 25.6z m120-156.8c0 9.6-3.2 17.6-11.2 24-6.4 6.4-14.4 11.2-24 11.2H251.2c-17.6 0-35.2-14.4-35.2-35.2 0-19.2 14.4-35.2 35.2-35.2h249.6c17.6 0 33.6 14.4 35.2 35.2 0-1.6 0-1.6 0 0z m102.4-121.6H264c-17.6-1.6-33.6-16-33.6-35.2s14.4-35.2 35.2-35.2h372.8c17.6 0 35.2 14.4 35.2 35.2 0 17.6-14.4 35.2-35.2 35.2z"  /><path d="M897.6 689.6c9.6 8 14.4 19.2 14.4 30.4 0 12.8-6.4 24-14.4 30.4-11.2 9.6-27.2 11.2-40 4.8l-12.8 12.8-25.6 25.6c3.2 6.4 6.4 12.8 6.4 19.2 0 16-11.2 32-25.6 36.8-16 6.4-33.6 0-43.2-12.8-11.2-12.8-11.2-30.4-3.2-44.8l-57.6-57.6c-6.4 1.6-11.2 1.6-17.6 0l-35.2 35.2c9.6 16 6.4 36.8-9.6 49.6-14.4 12.8-35.2 12.8-51.2 0-14.4-12.8-17.6-33.6-8-49.6 9.6-16 30.4-24 48-16L656 720c-14.4-19.2-9.6-46.4 14.4-59.2 9.6-4.8 22.4-4.8 32-1.6 25.6 11.2 30.4 40 16 59.2l56 56c8-3.2 17.6-3.2 27.2 0l38.4-38.4c-6.4-14.4-4.8-32 6.4-44.8 12.8-12.8 35.2-14.4 51.2-1.6"  /></svg>