<?xml version="1.0" standalone="no"?><!DOCTYPE svg PUBLIC "-//W3C//DTD SVG 1.1//EN" "http://www.w3.org/Graphics/SVG/1.1/DTD/svg11.dtd"><svg t="1563939457029" class="icon" viewBox="0 0 1024 1024" version="1.1" xmlns="http://www.w3.org/2000/svg" p-id="1458" xmlns:xlink="http://www.w3.org/1999/xlink" width="200" height="200"><defs><style type="text/css"></style></defs><path d="M828.40625 90.125H195.59375C162.4699707 90.125 135.36120605 117.23376464 135.36120605 150.35754394v723.20251465c0 33.1237793 27.10876465 60.23254395 60.23254395 60.23254395h632.8125c33.1237793 0 60.23254395-27.10876465 60.23254395-60.23254395V150.35754394C888.63879395 117.23376464 861.5300293 90.125 828.40625 90.125zM512 233.41418457c99.86572266 0 180.7800293 80.91430664 180.7800293 180.7800293S611.86572266 594.97424317 512 594.97424317s-180.7800293-80.91430664-180.7800293-180.78002931S412.13427734 233.41418457 512 233.41418457z m210.9375 579.91333007H301.0625c-16.56188965 0-30.1574707-13.59558106-30.1574707-30.1574707s13.59558106-30.1574707 30.1574707-30.1574707h421.875c16.56188965 0 30.1574707 13.59558106 30.1574707 30.1574707s-13.59558106 30.1574707-30.1574707 30.1574707z" p-id="1459"></path><path d="M443.8572998 438.74865722l-11.61804199 70.36743165c-1.23596192 7.49816895 3.87268067 14.50195313 11.28845216 15.73791504 3.04870606 0.49438477 6.09741211 0 8.81652831-1.4831543l59.4909668-32.71179199 59.49096679 33.1237793c1.97753906 0.98876953 4.11987305 1.4831543 6.3446045 1.56555175h0.16479491c7.58056641 0 13.67797852-6.17980958 13.67797853-13.76037597 0-1.4831543-0.24719239-2.88391114-0.6591797-4.28466797l-10.9588623-68.30749512 48.61450196-49.68566894c3.62548828-3.62548828 4.8614502-8.98132325 3.21350098-13.84277344-1.56555176-4.8614502-5.85021973-8.48693848-10.87646486-9.22851562l-66.49475097-10.21728516-29.7454834-63.77563477c-3.21350098-6.83898926-11.37084961-9.80529786-18.29223632-6.59179687-2.88391114 1.31835938-5.19104004 3.62548828-6.59179688 6.50939941l-29.99267578 63.61083984-66.6595459 10.05249024c-5.10864258 0.74157715-9.31091309 4.28466797-10.95886231 9.22851562-1.64794922 4.8614502-0.41198731 10.21728516 3.13110353 13.9251709l48.61450195 49.76806641z" p-id="1460"></path></svg>