<?xml version="1.0" standalone="no"?><!DOCTYPE svg PUBLIC "-//W3C//DTD SVG 1.1//EN" "http://www.w3.org/Graphics/SVG/1.1/DTD/svg11.dtd"><svg t="1563939430548" class="icon" viewBox="0 0 1024 1024" version="1.1" xmlns="http://www.w3.org/2000/svg" p-id="1347" xmlns:xlink="http://www.w3.org/1999/xlink" width="200" height="200"><defs><style type="text/css"></style></defs><path d="M432.00000031 97.49479155v397.75999969c0 15.97333313 12.93333375 28.90666687 28.90666594 28.90666688h6.82666688a53.33333344 53.33333344 0 0 0 37.70666718-15.6l67.73333344-67.68a26.66666625 26.66666625 0 0 1 37.68 0l67.92 67.73333344a53.33333344 53.33333344 0 0 0 37.65333281 15.54666656h6.74666719A28.8 28.8 0 0 0 752 495.36145812V97.49479155h53.33333344a53.33333344 53.33333344 0 0 1 53.33333344 53.33333345v719.99999999a53.33333344 53.33333344 0 0 1-53.33333344 53.33333345H218.66666656a53.33333344 53.33333344 0 0 1-53.33333344-53.33333345v-719.99999999a53.33333344 53.33333344 0 0 1 53.33333344-53.33333345h213.33333375z m53.33333344 0h213.33333281v355.81333315l-68.95999968-68.95999969a53.33333344 53.33333344 0 0 0-75.41333344 0L485.33333375 453.3081247V97.49479155z" p-id="1348"></path></svg>