<?xml version="1.0" standalone="no"?><!DOCTYPE svg PUBLIC "-//W3C//DTD SVG 1.1//EN" "http://www.w3.org/Graphics/SVG/1.1/DTD/svg11.dtd"><svg t="1572149734886" class="icon" viewBox="0 0 1024 1024" version="1.1" xmlns="http://www.w3.org/2000/svg" p-id="5539" xmlns:xlink="http://www.w3.org/1999/xlink" width="128" height="128"><defs><style type="text/css"></style></defs><path d="M768 853.333a142.222 142.222 0 1 0 0-284.444 142.222 142.222 0 0 0 0 284.444z m0 56.89A199.111 199.111 0 1 1 768 512a199.111 199.111 0 0 1 0 398.222z m142.222-411.99V227.556a56.889 56.889 0 0 0-56.889-56.89H170.667a56.889 56.889 0 0 0-56.89 56.89v455.11a56.889 56.889 0 0 0 56.89 56.89h342.897c2.19 19.712 6.6 38.77 13 56.888H170.667A113.778 113.778 0 0 1 56.889 682.667V227.556a113.778 113.778 0 0 1 113.778-113.778h682.666a113.778 113.778 0 0 1 113.778 113.778V550.2a257.422 257.422 0 0 0-56.889-51.968z m-449.877-133.29L512 597.332l-156.444 89.031-156.445-89.03 51.285-230.856-12.117-72.675a56.889 56.889 0 0 1 56.121-66.247h121.685a56.889 56.889 0 0 1 56.121 66.247l-11.861 71.11zM263.765 568.66l91.79 52.281 91.79-52.252-37.859-170.468H301.625l-37.86 170.44z m142.848-227.328l9.472-56.889H294.4l9.5 56.89h102.713zM625.778 256h170.666a28.444 28.444 0 0 1 0 56.889H625.778a28.444 28.444 0 0 1 0-56.889z m0 113.778h113.778a28.444 28.444 0 0 1 0 56.889H625.778a28.444 28.444 0 0 1 0-56.89z m129.024 360.021l80.44-80.47a28.444 28.444 0 0 1 40.221 40.25L754.802 810.24l-80.47-80.44a28.444 28.444 0 1 1 40.22-40.221l40.25 40.22z" p-id="5540"></path></svg>