<?xml version="1.0" standalone="no"?><!DOCTYPE svg PUBLIC "-//W3C//DTD SVG 1.1//EN" "http://www.w3.org/Graphics/SVG/1.1/DTD/svg11.dtd"><svg t="1563939635130" class="icon" viewBox="0 0 1024 1024" version="1.1" xmlns="http://www.w3.org/2000/svg" p-id="1570" xmlns:xlink="http://www.w3.org/1999/xlink" width="200" height="200"><defs><style type="text/css"></style></defs><path d="M954.78518507 401.54074027h-60.112592V328.05925973l-33.0903712-110.17481493h-58.78518507v-73.38666667L768.4740736 34.41777813H254.4829632L219.97037013 144.49777813v73.38666667h-58.78518506L128.18962987 328.05925973v73.38666667h-60.11259307L34.13333333 511.7155552v379.35407467c0 53.94962987 80.78222187 97.94370347 134.73185174 97.94370346h722.10962986c50.06222187 0 97.94370347-45.22666667 97.94370347-94.05629653V511.7155552l-34.13333333-110.17481493zM327.86962987 144.49777813H694.99259307v73.38666667H327.86962987v-73.38666667zM233.81333333 328.05925973h555.33037014v73.38666667H233.81333333V328.05925973z m647.11111147 257.04296214H691.38962987C674.41777813 668.82370347 600.27259307 731.97037013 511.43111147 731.97037013s-162.89185173-63.14666667-179.86370454-146.86814826H142.03259307v-73.38666667h738.89185173v73.38666667z" p-id="1571"></path></svg>