<?xml version="1.0" standalone="no"?><!DOCTYPE svg PUBLIC "-//W3C//DTD SVG 1.1//EN" "http://www.w3.org/Graphics/SVG/1.1/DTD/svg11.dtd"><svg t="1572149076377" class="icon" viewBox="0 0 1024 1024" version="1.1" xmlns="http://www.w3.org/2000/svg" p-id="2070" xmlns:xlink="http://www.w3.org/1999/xlink" width="128" height="128"><defs><style type="text/css"></style></defs><path d="M943.36 667.52a448 448 0 0 0-208.64-496.64 32 32 0 1 0-32 55.68A384 384 0 0 1 883.84 640a122.24 122.24 0 1 0 59.52 24.32zM98.56 588.8A32 32 0 0 0 128 556.8 384 384 0 0 1 400.64 192a122.24 122.24 0 1 0-8.96-64A448 448 0 0 0 64 556.8a32 32 0 0 0 34.56 32zM704 887.04a376.32 376.32 0 0 1-448-53.12 122.24 122.24 0 1 0-51.84 40.96 442.88 442.88 0 0 0 192.64 112.64 448 448 0 0 0 115.2 15.36 442.88 442.88 0 0 0 222.08-60.16 32 32 0 1 0-32-55.68z" p-id="2071"></path></svg>