<?xml version="1.0" standalone="no"?><!DOCTYPE svg PUBLIC "-//W3C//DTD SVG 1.1//EN" "http://www.w3.org/Graphics/SVG/1.1/DTD/svg11.dtd"><svg t="1572149103269" class="icon" viewBox="0 0 1024 1024" version="1.1" xmlns="http://www.w3.org/2000/svg" p-id="2869" xmlns:xlink="http://www.w3.org/1999/xlink" width="128" height="128"><defs><style type="text/css"></style></defs><path d="M102.4 102.4h614.4v51.2H102.4zM102.4 153.6h51.2v614.4H102.4zM204.8 204.8h409.6v25.6H204.8z" fill="" p-id="2870"></path><path d="M665.6 102.4h51.2v128h-51.2zM102.4 716.8h153.6v51.2H102.4zM305.664 307.2h614.4v51.2h-614.4zM305.664 358.4h51.2v563.2h-51.2zM408.064 409.6h409.6v25.6h-409.6z" fill="" p-id="2871"></path><path d="M868.864 307.2h51.2v128h-51.2zM305.664 870.4h153.6v51.2h-153.6zM692.224 873.472a179.2 179.2 0 1 1 179.2-179.2 179.2 179.2 0 0 1-179.2 179.2z m0-307.2a128 128 0 1 0 128 128 128 128 0 0 0-128-128zM802.304 797.696l96.768 108.032" fill="" p-id="2872"></path><path d="M880.128 922.624l-96.768-107.52 37.888-34.304 96.768 107.52-37.888 34.304z" fill="" p-id="2873"></path></svg>