<?xml version="1.0" standalone="no"?><!DOCTYPE svg PUBLIC "-//W3C//DTD SVG 1.1//EN" "http://www.w3.org/Graphics/SVG/1.1/DTD/svg11.dtd"><svg t="1563939749373" class="icon" viewBox="0 0 1024 1024" version="1.1" xmlns="http://www.w3.org/2000/svg" p-id="1792" xmlns:xlink="http://www.w3.org/1999/xlink" width="200" height="200"><defs><style type="text/css"></style></defs><path d="M864 96H160c-35.346 0-64 28.654-64 64v704c0 35.347 28.654 64 64 64h704c35.347 0 64-28.653 64-64V160c0-35.346-28.653-64-64-64zM408 292c0-8.836 7.164-16 16-16h352c8.837 0 16 7.164 16 16v56c0 8.836-7.163 16-16 16H424c-8.836 0-16-7.164-16-16v-56z m-132-16c24.301 0 44 19.699 44 44s-19.699 44-44 44-44-19.699-44-44 19.699-44 44-44z m0 192c24.301 0 44 19.699 44 44s-19.699 44-44 44-44-19.699-44-44 19.699-44 44-44z m7 280c-24.301 0-44-19.699-44-44s19.699-44 44-44 44 19.699 44 44-19.699 44-44 44z m125-208v-56c0-8.836 7.164-16 16-16h352c8.837 0 16 7.164 16 16v56c0 8.836-7.163 16-16 16H424c-8.836 0-16-7.164-16-16z m391 192c0 8.836-7.163 16-16 16H431c-8.836 0-16-7.164-16-16v-56c0-8.836 7.164-16 16-16h352c8.837 0 16 7.164 16 16v56z" p-id="1793"></path></svg>