<?xml version="1.0" standalone="no"?><!DOCTYPE svg PUBLIC "-//W3C//DTD SVG 1.1//EN" "http://www.w3.org/Graphics/SVG/1.1/DTD/svg11.dtd"><svg t="1563946429921" class="icon" viewBox="0 0 1024 1024" version="1.1" xmlns="http://www.w3.org/2000/svg" p-id="1190" xmlns:xlink="http://www.w3.org/1999/xlink" width="200" height="200"><defs><style type="text/css"></style></defs><path d="M631.70703125 111.4296875c11.70703125 0 22.93945313 4.90429688 31.21875 13.18359375l167.58984375 167.58984375a45.87890625 45.87890625 0 0 1 13.18359375 36.12304688v194.90624999a239.94140625 239.94140625 0 0 0-217.37109375-137.74218749 240.57421875 240.57421875 0 0 0-240.36328125 240.83789062 240.57421875 240.57421875 0 0 0 296.05078125 234.45703125l52.20703125 52.25976563H180.30078125A68.81835938 68.81835938 0 0 1 111.4296875 844.2265625V180.30078125C111.4296875 142.2265625 142.2265625 111.4296875 180.30078125 111.4296875h451.40625z m174.8671875 595.4765625l95.71289063 94.76367188c13.18359375 13.18359375 13.18359375 34.69921875-1e-8 48.35742187l-48.83203125 48.35742187a35.12109375 35.12109375 0 0 1-48.83203125 0l-96.24023437-95.23828125a27.52734375 27.52734375 0 0 0-27.84375-6.328125c-60.1171875 17.0859375-127.51171875 2.90039063-174.39257813-43.98046875a173.23242188 173.23242188 0 0 1-48.83203124-154.35351562c2.90039063-15.1875 22.46484375-21.04101563 33.69726562-9.80859375l94.23632813 93.33984375c13.7109375 13.18359375 35.17382813 13.18359375 48.88476562 0l48.83203125-48.35742188a34.48828125 34.48828125 0 0 0 0-48.41015625L587.7265625 491.01171875c-11.23242188-11.23242188-5.85351563-30.796875 9.75585938-33.75a176.9765625 176.9765625 0 0 1 158.25585937 47.8828125 171.703125 171.703125 0 0 1 43.98046875 173.91796875 28.79296875 28.79296875 0 0 0 6.85546875 27.84375z" p-id="1191"></path></svg>