<?xml version="1.0" standalone="no"?><!DOCTYPE svg PUBLIC "-//W3C//DTD SVG 1.1//EN" "http://www.w3.org/Graphics/SVG/1.1/DTD/svg11.dtd"><svg t="1563939778681" class="icon" viewBox="0 0 1024 1024" version="1.1" xmlns="http://www.w3.org/2000/svg" p-id="2014" xmlns:xlink="http://www.w3.org/1999/xlink" width="200" height="200"><defs><style type="text/css"></style></defs><path d="M833.41601563 842.99609375H191.19921875c-8.70117188 0-15.64453125 9.31640625-15.64453125 20.91796875v20.91796875c0 11.6015625 6.94335938 20.83007813 15.64453125 20.83007813h640.45898438c8.70117188 0 15.64453125-9.31640625 15.64453125-20.83007813v-20.91796875c0-11.6015625-6.94335938-20.91796875-13.88671875-20.91796875z m14.94140624-69.69726563v-47.90039062c0-26.80664063-5.9765625-32.51953125-34.01367187-32.51953125H713.97265625c-7.82226563-0.87890625-16.08398438-5.80078125-23.11523438-11.42578125-0.17578125-0.08789063-0.43945313-0.26367188-0.61523437-0.3515625-2.98828125-2.109375-6.85546875-5.80078125-10.72265625-10.01953125-1.93359375-2.02148438-3.77929688-4.04296875-5.53710938-6.15234375v-0.08789062c-3.1640625-3.60351563-6.15234375-7.20703125-9.14062499-10.8984375-59.765625-70.22460938-21.00585938-118.828125 21.35742187-185.18554688 7.99804688-9.58007813 15.99609375-19.16015625 22.06054688-30.67382813 18.01757813-30.67382813 28.03710938-65.12695313 28.03710937-103.44726562 0-118.74023438-100.1953125-216.38671875-226.40625-216.38671875C385.61328125 118.33789062 283.484375 214.13867187 283.484375 334.72460937c0 49.83398438 18.01757813 95.71289063 48.07617188 132.09960938 48.07617188 72.7734375 126.2109375 132.09960938 0 225.96679688H211.32617187c-22.06054688 0-34.01367188 11.51367188-34.01367187 32.51953124v49.74609375c0 19.16015625 14.0625 15.29296875 36.03515625 15.29296875h616.9921875c20.0390625-1.7578125 18.01757813 3.95507813 18.01757813-17.05078125z" p-id="2015"></path></svg>