<?xml version="1.0" standalone="no"?><!DOCTYPE svg PUBLIC "-//W3C//DTD SVG 1.1//EN" "http://www.w3.org/Graphics/SVG/1.1/DTD/svg11.dtd"><svg class="icon" width="128px" height="128.00px" viewBox="0 0 1024 1024" version="1.1" xmlns="http://www.w3.org/2000/svg"><path d="M412.63441 817.358663c0-49.40113-40.209794-89.645716-89.645716-89.645716-49.454342 0-89.645716 40.243563-89.645716 89.645716l0 25.052582L125.749494 842.411245 125.749494 189.907211l764.411777 0 0 393.258619 61.664432 0L951.825702 159.065785c0-17.034978-13.806447-30.840402-30.824029-30.840402L94.924441 128.225383c-17.033955 0-30.823006 13.805424-30.823006 30.840402l0 714.15107c0 17.053398 13.789051 30.841426 30.823006 30.841426l169.241542 0c17.033955 0 30.823006-13.788028 30.823006-30.841426L294.988989 817.358663c0-15.402805 12.561084-27.961842 27.998681-27.961842 15.420201 0 27.998681 12.559037 27.998681 27.961842l0 55.858192c0 17.053398 13.789051 30.841426 30.806633 30.841426l188.010001 0 0-61.646012L412.63441 842.412268 412.63441 817.358663z"  /><path d="M282.673499 415.162488c0 7.684006 5.894244 13.999852 13.19144 13.999852 0.088004 0 0.158612-0.033769 0.246617-0.033769 2.719948 36.873816 31.771611 73.80289 67.260893 73.80289 35.472909 0 64.524572-36.929074 67.260893-73.80289 0.088004 0 0.140193 0.033769 0.212848 0.033769 7.331989 0 13.208836-6.315846 13.208836-13.999852 0-5.718235-3.211135-10.595312-7.806803-12.788258 2.666736-8.299013 4.122901-17.140379 4.122901-26.403347 0-45.086871-34.472116-81.680301-76.997652-81.680301-42.524512 0-77.014024 36.594453-77.014024 81.680301 0 9.262968 1.455141 18.104333 4.122901 26.403347C285.901007 404.566152 282.673499 409.443229 282.673499 415.162488z"  /><path d="M192.588785 600.964194l0 25.631774c0 3.998057 3.211135 7.175423 7.175423 7.175423l327.216483 0c3.948939 0 7.157004-3.176342 7.157004-7.175423l0-25.631774c0-1.946328-0.787946-3.807722-2.173502-5.175883-31.439036-30.526247-69.840648-52.067866-111.119797-62.349023-1.071402-0.561795-2.227738-0.876973-3.438309-0.876973l-3.736091 0c-1.193175 0-2.350534 0.281409-3.38612 0.876973-12.491499 6.64842-29.578666 10.490935-46.911426 10.490935-17.33276 0-34.45472-3.842515-46.910403-10.524704-1.052982-0.561795-2.211365-0.843204-3.403516-0.843204l-2.718925 0c-0.545422 0-1.106194 0.053212-1.666966 0.174985-42.349527 10.035564-81.716116 31.841196-113.926726 63.051011C193.360358 597.156472 192.588785 599.016843 192.588785 600.964194z"  /><path d="M582.136895 420.026262l229.396597 0c6.80601 0 12.313443-5.54325 12.313443-12.349259 0-6.77224-5.507434-12.31549-12.313443-12.31549L582.136895 395.361513c-6.825452 0-12.33391 5.54325-12.33391 12.31549C569.802986 414.483013 575.311443 420.026262 582.136895 420.026262z"  /><path d="M582.136895 297.890574c-6.825452 0-12.33391 5.508457-12.33391 12.314467 0 6.842849 5.508457 12.351306 12.33391 12.351306l229.396597 0c6.80601 0 12.313443-5.508457 12.313443-12.351306 0-6.80601-5.507434-12.314467-12.313443-12.314467L582.136895 297.890574z"  /><path d="M654.711817 895.070582l35.836183 0c11.425214 0 20.679995-9.263991 20.679995-20.689205l0-142.659117c0-11.425214-9.254781-20.681018-20.679995-20.681018l-35.836183 0c-11.425214 0-20.681018 9.255805-20.681018 20.681018l0 142.659117C634.030799 885.806591 643.286604 895.070582 654.711817 895.070582z"  /><path d="M774.353708 895.070582l35.836183 0c11.425214 0 20.681018-9.263991 20.681018-20.689205l0-65.7464c0-11.425214-9.255805-20.681018-20.681018-20.681018l-35.836183 0c-11.425214 0-20.679995 9.255805-20.679995 20.681018l0 65.7464C753.673713 885.806591 762.928494 895.070582 774.353708 895.070582z"  /><path d="M893.996622 895.070582l35.836183 0c11.425214 0 20.679995-9.263991 20.679995-20.689205L950.5128 637.71726c0-11.42419-9.254781-20.679995-20.679995-20.679995l-35.836183 0c-11.425214 0-20.681018 9.255805-20.681018 20.679995l0 236.664118C873.315604 885.806591 882.571409 895.070582 893.996622 895.070582z"  /></svg>