<?xml version="1.0" standalone="no"?><!DOCTYPE svg PUBLIC "-//W3C//DTD SVG 1.1//EN" "http://www.w3.org/Graphics/SVG/1.1/DTD/svg11.dtd"><svg t="1563939717887" class="icon" viewBox="0 0 1025 1024" version="1.1" xmlns="http://www.w3.org/2000/svg" p-id="1681" xmlns:xlink="http://www.w3.org/1999/xlink" width="200.1953125" height="200"><defs><style type="text/css"></style></defs><path d="M933.08750027 785.26250027h-46.46250027c-24.80625 0-30.76875027 13.55625027-13.21875027 30.09374946l32.85000054 30.93750027c0.56250027 0.50625 0.56250027 1.35 0 1.85625l-31.33125054 29.53125-31.3875 29.58750027a1.46249973 1.46249973 0 0 1-1.96874973 0l-32.84999973-30.99375054c-17.55-16.48124973-31.89375-10.91249973-31.89375 12.4875v43.76250027c0 0.73125027-0.675 1.35-1.40625027 1.35h-88.70624973a1.40625027 1.40625027 0 0 1-1.40625027-1.35v-43.76250027c0-23.39999973-14.34375-28.96874973-31.89375-12.4875l-32.84999973 30.99375054a1.51875 1.51875 0 0 1-2.025 0l-31.33125054-29.58750027-31.3875-29.53125a1.35 1.35 0 0 1 0-1.85625l32.90625-30.93750027c17.55-16.5375 11.58749973-30.09375027-13.21874946-30.09374946h-46.51875054a1.29374973 1.29374973 0 0 1-1.35-1.29375054v-83.58749946c0-0.73125027 0.61874973-1.29374973 1.35-1.29375054h46.51875054c24.80625 0 30.76875027-13.55625027 13.21874946-30.09374946l-32.90625-30.93750027a1.35 1.35 0 0 1 0-1.85625l31.3875-29.58750027 31.33125054-29.53125a1.51875 1.51875 0 0 1 2.025 0l32.84999973 30.99375054c17.55 16.48124973 31.89375 10.91249973 31.89375-12.4875v-43.76250027c0-0.73125027 0.61874973-1.29374973 1.40625027-1.35h88.70624973c0.73125027 0 1.40625027 0.61874973 1.40625027 1.35v43.76250027c0 23.39999973 14.34375 28.96874973 31.89375 12.4875l32.84999973-30.99375054a1.46249973 1.46249973 0 0 1 1.96874973 0l31.3875 29.53125 31.33125054 29.58750027c0.56250027 0.50625 0.56250027 1.35 0 1.85625l-32.85000054 30.93750027c-17.55 16.5375-11.58749973 30.09375027 13.1625 30.09374946h46.51875054c0.78749973 0 1.40625027 0.56250027 1.40624946 1.29375054v83.58749946c0 0.73125027-0.61874973 1.29374973-1.40624946 1.29375054z m-198.95625-108.78750054c-37.74374973 0-68.34375 28.79999973-68.34375 64.35000027 0 35.60625 30.60000027 64.40624973 68.34375 64.40624973 37.68750027 0 68.28749973-28.79999973 68.28749973-64.40624973 0-35.54999973-30.60000027-64.35000027-68.28749973-64.35000027z m-10.91250054-172.68749946a253.68750027 253.68750027 0 0 0-120.99375 29.13749973 243.84375 243.84375 0 0 0-88.36874973 78.3h-257.06250027a56.08125027 56.08125027 0 0 0-39.31875 14.96249973 47.81250027 47.81250027 0 0 0-16.31249973 36.61875c0 14.45624973 5.45625027 26.77499973 16.31249973 37.06875054a55.46249973 55.46249973 0 0 0 39.31875 15.35625h218.19375c-0.56250027 3.88125-0.90000027 7.7625-0.89999946 11.64375v12.4875c0 24.975 3.88125 48.6 11.53124946 70.76249946 7.65000027 22.21874973 18.225 43.03125 31.78125027 62.4375h-312.75000027c-11.19375027 0-23.39999973-3.0375-36.61875-9.16874946a153.39375 153.39375 0 0 1-37.125-24.13125 140.79375027 140.79375027 0 0 1-28.6875-34.14375027 76.38749973 76.38749973 0 0 1-11.475-39.93749973V197.50625027c0-11.64375 2.92500027-23.73749973 8.775-36.22500054 5.90625-12.4875 13.55625027-24.01875027 23.00625027-34.53749973 9.39374973-10.51875027 20.30625027-19.29375027 32.68124973-26.21250027 12.37500027-6.91875 25.3125-10.40624973 38.86875027-10.40624973h338.34375v104.06249973c0 11.08124973 1.74375027 22.6125 5.28750027 34.53750054 3.54375 11.92499973 9.16875027 23.17500027 16.81874973 33.69374973 7.65000027 10.57499973 17.38125 19.12500027 29.13749973 25.81875 11.75624973 6.63750027 25.59374973 9.95625 41.5125 9.95625h128.98125027v207.28125027a64.68750027 64.68750027 0 0 0-15.01875-1.6875h-15.91875027zM626.97500027 417.66875a53.71875027 53.71875027 0 0 0-38.86875027-15.41250027h-331.31250027a55.23750027 55.23750027 0 0 0-39.31875 15.41250027 49.21874973 49.21874973 0 0 0-16.31249973 37.01250027c0 14.45624973 5.45625027 26.6625 16.31249973 36.67499946 10.91249973 9.95625 24.01875027 14.96249973 39.31875 14.96250054h331.31250027a54.78749973 54.78749973 0 0 0 38.86875027-14.96250054 48.54374973 48.54374973 0 0 0 15.8625-36.67499946 49.78125 49.78125 0 0 0-15.8625-37.01250027z m-18.11250027-178.5375a49.6125 49.6125 0 0 1-11.08124973-14.175 78.07499973 78.07499973 0 0 1-6.63750027-17.04375 62.21249973 62.21249973 0 0 1-2.19375-14.56875027V90.125h1.79999973c4.66874973 0 9.56249973 0.675 14.56875027 2.08125027 5.00624973 1.40625027 10.91249973 3.99374973 17.66249973 7.87499973 6.75 3.93750027 15.01875 9.61875 24.75000054 17.10000027 9.67500027 7.48125027 21.9375 17.32499973 36.61875 29.53125 15.91875027 13.33125 28.46249973 24.69375027 37.57499973 34.14374946 9.1125 9.45 16.2 17.32499973 21.20624973 23.73750054a48.54374973 48.54374973 0 0 1 9.28125 16.2 46.01249973 46.01249973 0 0 1 1.74375027 11.64375v12.4875H624.33124973a22.6125 22.6125 0 0 1-15.46874973-5.79375027z" p-id="1682"></path></svg>