<?xml version="1.0" standalone="no"?><!DOCTYPE svg PUBLIC "-//W3C//DTD SVG 1.1//EN" "http://www.w3.org/Graphics/SVG/1.1/DTD/svg11.dtd"><svg t="1572149253397" class="icon" viewBox="0 0 1024 1024" version="1.1" xmlns="http://www.w3.org/2000/svg" p-id="4587" xmlns:xlink="http://www.w3.org/1999/xlink" width="128" height="128"><defs><style type="text/css"></style></defs><path d="M753.03493 277.431632c-10.665262-10.665262-23.463577-14.931367-36.261892-14.931368s-25.59663 4.266105-36.261892 14.931368l-115.184834 115.184833h-2.133052V55.594173c0-27.729682-19.197472-53.326312-46.927155-55.459364-29.862735-2.133052-55.459365 21.330525-55.459365 51.193259v341.288397s0 2.133052-2.133052 0L343.488854 277.431632a51.470556 51.470556 0 0 0-72.523784 0 51.470556 51.470556 0 0 0 0 72.523784l200.506933 200.506933c21.330525 21.330525 57.592417 21.330525 81.055994 0l200.506933-200.506933a51.470556 51.470556 0 0 0 0-72.523784zM192.042128 396.88257c-12.798315-10.665262-29.862735-6.399157-36.261892 8.53221L53.393716 699.776023c-2.133052 4.266105-2.133052 8.53221-2.133052 14.931367v258.09935c0 27.729682 23.463577 51.19326 51.19326 51.19326h819.092152c27.729682 0 51.19326-23.463577 51.19326-51.19326v-255.966297-2.133053c0-4.266105 0-10.665262-2.133052-14.931367L874.618922 416.080043c-4.266105-14.931367-25.59663-21.330525-36.261892-8.53221l-44.794102 44.794102c-6.399157 6.399157-8.53221 14.931367-6.399158 23.463577l81.055994 243.167983H155.780236l85.322099-255.966298c2.133052-8.53221 0-17.06442-6.399158-23.463577l-42.661049-42.66105z m780.697208 319.957873" p-id="4588"></path></svg>